<?xml version="1.0" encoding="utf-8"?>
<!-- Generator: Adobe Illustrator 27.6.1, SVG Export Plug-In . SVG Version: 6.00 Build 0)  -->
<svg version="1.1" id="Слой_1" xmlns="http://www.w3.org/2000/svg" xmlns:xlink="http://www.w3.org/1999/xlink" x="0px" y="0px"
	 viewBox="0 0 122.47 258.43" style="enable-background:new 0 0 122.47 258.43;" xml:space="preserve">
<style type="text/css">
	.st0{fill:#12100B;}
</style>
<path id="XMLID_40884_" class="st0" d="M102.06,226.1v-1.44c4.03-1.18,7.01-4.88,7.01-9.28c0-5.34-4.37-9.71-9.71-9.71h-2.7
	l-4.22-19.15c0,0-19.87-43.4-7.83-84.19c0,0,14.19-4.71,1.98-12.55c0,0,4.12-7.32-5.85-6.8c0,0-3.35-14.12,11.71-29.28
	c0,0-0.06-0.04-0.17-0.1V42.8c-6.86-2.06-13.44-3.19-19.52-3.7c0.02-0.12,0.04-0.23,0.04-0.35c0-1.49-1.22-2.71-2.71-2.71h-1.28
	V26.01h5.95c2.28,0,4.14-1.86,4.14-4.14c0-2.28-1.86-4.14-4.14-4.14h-5.95v-5.95c0-2.28-1.86-4.14-4.14-4.14
	c-2.28,0-4.14,1.86-4.14,4.14v5.95h-5.95c-2.28,0-4.14,1.86-4.14,4.14c0,2.28,1.86,4.14,4.14,4.14h5.95v10.03h-1.28
	c-1.49,0-2.71,1.22-2.71,2.71c0,0.11,0.02,0.21,0.03,0.32c-11.91,0.95-19.52,3.73-19.52,3.73v10.89
	c15.06,15.16,11.71,29.28,11.71,29.28c-9.98-0.52-5.85,6.8-5.85,6.8c-12.21,7.84,1.98,12.55,1.98,12.55
	c12.04,40.79-7.83,84.19-7.83,84.19l-4.22,19.15h-4.44c-5.34,0-9.71,4.37-9.71,9.71c0,4.13,2.62,7.65,6.27,9.05v1.67h-0.96
	c-7.72,0-14.04,6.32-14.04,14.04s6.32,14.04,14.04,14.04h77.92c7.72,0,14.04-6.32,14.04-14.04
	C115.92,232.47,109.7,226.2,102.06,226.1z"/>
</svg>
