<?xml version="1.0" encoding="utf-8"?>
<!-- Generator: Adobe Illustrator 27.6.1, SVG Export Plug-In . SVG Version: 6.00 Build 0)  -->
<svg version="1.1" id="Слой_1" xmlns="http://www.w3.org/2000/svg" xmlns:xlink="http://www.w3.org/1999/xlink" x="0px" y="0px"
	 viewBox="0 0 129.78 224.72" style="enable-background:new 0 0 129.78 224.72;" xml:space="preserve">
<style type="text/css">
	.st0{fill:#12100B;}
</style>
<path id="XMLID_40860_" class="st0" d="M105.21,187.4v-1.57c4.69-1.38,8.07-5.88,7.58-11.1c-0.52-5.5-5.44-9.56-10.97-9.56
	c-1.45,0-2.71-1.01-3.02-2.42l-2.12-5.69c-1.1-4.98-2.52-9.87-4.3-14.64c-5.02-13.45-15.64,9.05-7.24-24.7
	c0.56-2.26,2.01-4.19,4.04-5.32c3.05-1.68,6.85-4.9,2.88-9.33c-1.67-1.86-2.58-4.25-2.79-6.74c-0.1-1.15-0.65-2.3-2.21-3
	c-2.85-1.28-4.62-4.04-4.99-7.07c11.55-6.23,19.4-18.43,19.4-32.47c0-20.36-16.51-36.87-36.87-36.87
	c-20.36,0-36.87,16.51-36.87,36.87c0,14.04,7.85,26.24,19.4,32.47c-0.37,3.03-2.14,5.79-4.99,7.07c-1.56,0.7-2.12,1.85-2.21,3
	c-0.21,2.49-1.12,4.88-2.79,6.74c-3.97,4.43-0.17,7.65,2.88,9.33c2.04,1.12,3.48,3.06,4.04,5.32c8.4,33.76-2.21,11.26-7.24,24.7
	c-1.78,4.77-3.21,9.67-4.3,14.64l-2.12,5.69c-0.31,1.42-1.57,2.42-3.02,2.42c-5.53,0-10.45,4.05-10.97,9.56
	c-0.49,5.22,2.89,9.73,7.58,11.1v1.57c-8.69,0.11-15.69,7.57-15.03,16.42c0.6,8.07,7.7,14.12,15.79,14.12h39.85h39.85
	c8.09,0,15.19-6.05,15.79-14.12C120.91,194.96,113.9,187.51,105.21,187.4z"/>
</svg>
