<?xml version="1.0" encoding="utf-8"?>
<!-- Generator: Adobe Illustrator 27.6.1, SVG Export Plug-In . SVG Version: 6.00 Build 0)  -->
<svg version="1.1" id="Слой_1" xmlns="http://www.w3.org/2000/svg" xmlns:xlink="http://www.w3.org/1999/xlink" x="0px" y="0px"
	 viewBox="0 0 126.97 249.44" style="enable-background:new 0 0 126.97 249.44;" xml:space="preserve">
<style type="text/css">
	.st0{fill:#12100B;}
</style>
<path id="XMLID_40881_" class="st0" d="M103.62,208.37v-1.42c4.31-1.25,7.42-5.32,6.96-10.04c-0.48-4.98-5-8.64-10.08-8.64
	c-1.33,0-2.49-0.91-2.77-2.19l-1.95-8.7c-1.01-4.5-2.32-8.92-3.96-13.24c-4.62-12.15-14.38-43.37-6.65-73.88
	c0.52-2.04,1.84-3.79,3.72-4.81c2.81-1.52,6.3-4.43,2.65-8.43c-1.53-1.68-2.37-3.84-2.56-6.09c-0.09-1.04-0.6-2.08-2.03-2.72
	c-3.42-1.51-5.18-5.31-4.53-8.94c0.97-5.38,3.84-12.77,11.58-20.44c0,0-0.06-0.04-0.17-0.1v-8.67l0.01,0V17.43
	c-3.3,3.52-7.55,6.1-11.97,7.99c-0.4,0.17-0.8,0.31-1.2,0.47l3.92-3.52l-3.27-5.12H70.08c0.53-0.74,0.84-1.64,0.84-2.61
	c0-2.52-2.07-4.55-4.63-4.55c-2.56,0-4.63,2.04-4.63,4.55c0,0.97,0.32,1.87,0.84,2.61H51.27L48,22.38l3.92,3.52
	c-0.4-0.16-0.8-0.3-1.2-0.47c-4.42-1.9-8.66-4.47-11.97-7.99v12.65l0.01,0v8.67c-0.1,0.06-0.17,0.1-0.17,0.1
	c7.74,7.67,10.62,15.06,11.58,20.44c0.65,3.63-1.11,7.43-4.53,8.94c-1.43,0.63-1.95,1.67-2.03,2.72c-0.19,2.25-1.03,4.41-2.56,6.09
	c-3.65,4-0.16,6.91,2.65,8.43c1.87,1.01,3.2,2.76,3.72,4.81c7.72,30.51-2.03,61.72-6.65,73.88c-1.64,4.31-2.95,8.74-3.96,13.24
	l-1.95,8.7c-0.29,1.28-1.44,2.19-2.77,2.19c-5.08,0-9.61,3.66-10.08,8.64c-0.45,4.72,2.66,8.79,6.97,10.04v1.42
	c-7.99,0.1-14.43,6.84-13.82,14.84c0.55,7.29,7.08,12.76,14.51,12.76h36.64h36.64c7.44,0,13.96-5.47,14.51-12.76
	C118.05,215.21,111.61,208.47,103.62,208.37z"/>
</svg>
